<svg xmlns="http://www.w3.org/2000/svg" xmlns:xlink="http://www.w3.org/1999/xlink" width="180" height="180" viewBox="0 0 180 180">
  <defs>
    <radialGradient id="radial-gradient" cx="0.5" cy="0.5" r="0.5" gradientUnits="objectBoundingBox">
      <stop offset="0" stop-color="#fff"/>
      <stop offset="0.817" stop-color="#fafbfc"/>
      <stop offset="1" stop-color="#eff0f4"/>
      <stop offset="1" stop-color="#ebecf1"/>
    </radialGradient>
  </defs>
  <g id="Group_11" data-name="Group 11" transform="translate(-1884 940)">
    <path id="Path_236" data-name="Path 236" d="M90,0A90,90,0,1,1,0,90,90,90,0,0,1,90,0Z" transform="translate(1884 -940)" fill="url(#radial-gradient)"/>
    <g id="Group_5" data-name="Group 5" transform="translate(1400 -1048)">
      <path id="Exclusion_1" data-name="Exclusion 1" d="M76.826,145.717a44.494,44.494,0,0,1-16.4-2.84,33.764,33.764,0,0,1-12.212-8.165,36.834,36.834,0,0,1-7.739-12.568,45,45,0,0,1-2.7-15.762,46.079,46.079,0,0,1,1.118-10.366,35.538,35.538,0,0,1,3.355-8.946c.176-.324.36-.651.546-.971H31.727a4.791,4.791,0,0,0-3.407,1.349,4.6,4.6,0,0,0-1.42,3.478v49.984H4.889v-51.4a25.978,25.978,0,0,1,1.42-8.875,18.054,18.054,0,0,1,11.041-11,26.522,26.522,0,0,1,8.981-1.42H47.489V79.793A34.341,34.341,0,0,0,42.795,86.1h4.694V79.793a33.13,33.13,0,0,1,7.042-5.644,31.857,31.857,0,0,1,8.449-3.514,39.037,39.037,0,0,1,9.727-1.171A29.719,29.719,0,0,1,81.014,70.6a24.54,24.54,0,0,1,7.1,3.337A21.448,21.448,0,0,1,93.44,79.12h.426V40.353h22.01v65.888a49.768,49.768,0,0,1-1.207,11.183,38.788,38.788,0,0,1-3.621,9.691,34.557,34.557,0,0,1-5.822,7.917,33.885,33.885,0,0,1-7.81,5.858,37.791,37.791,0,0,1-9.55,3.621A48.5,48.5,0,0,1,76.826,145.717Zm0-56.942a15.461,15.461,0,0,0-8.8,2.486,16.768,16.768,0,0,0-5.751,6.745,22.017,22.017,0,0,0-2.059,9.656,22.485,22.485,0,0,0,2.059,9.727,16.681,16.681,0,0,0,5.751,6.816,15.461,15.461,0,0,0,8.8,2.485A15.8,15.8,0,0,0,85.7,124.2a16.006,16.006,0,0,0,5.751-6.816,23.159,23.159,0,0,0,1.988-9.727,22.675,22.675,0,0,0-1.988-9.656A16.08,16.08,0,0,0,85.7,91.261,15.8,15.8,0,0,0,76.826,88.775Z" transform="translate(496.111 104.647)" fill="#393232" stroke="rgba(0,0,0,0)" stroke-miterlimit="10" stroke-width="1"/>
      <path id="Exclusion_6" data-name="Exclusion 6" d="M15,30A15,15,0,0,1,4.393,4.393,15,15,0,1,1,25.606,25.606,14.9,14.9,0,0,1,15,30ZM18.358,7.644a14.527,14.527,0,0,1,1.566,3.9,19.3,19.3,0,0,1,.5,4.527,19.3,19.3,0,0,1-.5,4.527,14.511,14.511,0,0,1-1.566,3.9h1.224a13.139,13.139,0,0,0,1.566-3.8,19.114,19.114,0,0,0,.54-4.626,18.956,18.956,0,0,0-.549-4.635,13.4,13.4,0,0,0-1.557-3.789H18.358Zm-7.4,0a13.188,13.188,0,0,0-1.548,3.789,19.228,19.228,0,0,0-.54,4.635,19,19,0,0,0,.54,4.617,13.723,13.723,0,0,0,1.548,3.807h1.224a14.211,14.211,0,0,1-1.557-3.906,19.629,19.629,0,0,1-.495-4.518,19.64,19.64,0,0,1,.495-4.518,14.232,14.232,0,0,1,1.557-3.906Z" transform="translate(617 145)" fill="#f3cf7d" opacity="0.9"/>
      <path id="Exclusion_7" data-name="Exclusion 7" d="M15,30A15,15,0,0,1,4.393,4.393,15,15,0,1,1,25.606,25.606,14.9,14.9,0,0,1,15,30Zm3.106-6.57v1.062h.684A2.146,2.146,0,0,0,21.238,22.1V17.526c0-.609.273-.918.81-.918h.612v-1.08h-.612c-.537,0-.81-.309-.81-.918V10.038A2.146,2.146,0,0,0,18.79,7.644h-.684V8.706h.486c.908,0,1.368.484,1.368,1.44v4.446a1.95,1.95,0,0,0,.2.99,1.2,1.2,0,0,0,.648.486,1.2,1.2,0,0,0-.648.486,1.95,1.95,0,0,0-.2.99V21.99c0,.956-.46,1.44-1.368,1.44ZM8.08,15.528v1.08h.612c.537,0,.81.309.81.918V22.1a2.154,2.154,0,0,0,2.466,2.394h.666V23.43h-.486c-.908,0-1.368-.484-1.368-1.44V17.544a1.957,1.957,0,0,0-.2-.99,1.206,1.206,0,0,0-.648-.486,1.205,1.205,0,0,0,.648-.486,1.957,1.957,0,0,0,.2-.99V10.146c0-.956.46-1.44,1.368-1.44h.486V7.644h-.666A2.154,2.154,0,0,0,9.5,10.038V14.61c0,.609-.273.918-.81.918Z" transform="translate(617 183)" fill="#41b0db" opacity="0.9"/>
      <path id="Exclusion_8" data-name="Exclusion 8" d="M15,30A15,15,0,0,1,4.393,4.393,15,15,0,1,1,25.606,25.606,14.9,14.9,0,0,1,15,30Zm4.325-19.044V12.09L25.95,14.7l-6.624,2.61v1.116l7.83-3.132V14.106Zm-7.236,0-7.83,3.15v1.188l7.83,3.132V17.31L5.466,14.7l6.624-2.61Z" transform="translate(617 220)" fill="#e65127" opacity="0.9"/>
    </g>
  </g>
</svg>
